<svg xmlns="http://www.w3.org/2000/svg" xmlns:xlink="http://www.w3.org/1999/xlink" width="323" zoomAndPan="magnify" viewBox="0 0 242.25 222.749994" height="297" preserveAspectRatio="xMidYMid meet" version="1.0"><defs><clipPath id="34661d1f01"><path d="M 0 0.21875 L 241.503906 0.21875 L 241.503906 213 L 0 213 Z M 0 0.21875 " clip-rule="nonzero"/></clipPath><clipPath id="b8d5c71944"><path d="M 169.355469 143.945312 L 201.488281 143.945312 L 201.488281 159.121094 L 169.355469 159.121094 Z M 169.355469 143.945312 " clip-rule="nonzero"/></clipPath><clipPath id="b5205f6853"><path d="M 176.941406 143.945312 L 193.839844 143.945312 C 195.855469 143.945312 197.785156 144.742188 199.207031 146.167969 C 200.628906 147.589844 201.429688 149.519531 201.429688 151.53125 C 201.429688 153.546875 200.628906 155.476562 199.207031 156.898438 C 197.785156 158.320312 195.855469 159.121094 193.839844 159.121094 L 176.941406 159.121094 C 174.929688 159.121094 173 158.320312 171.578125 156.898438 C 170.152344 155.476562 169.355469 153.546875 169.355469 151.53125 C 169.355469 149.519531 170.152344 147.589844 171.578125 146.167969 C 173 144.742188 174.929688 143.945312 176.941406 143.945312 Z M 176.941406 143.945312 " clip-rule="nonzero"/></clipPath><clipPath id="0aa987f291"><path d="M 0.355469 0.945312 L 32.457031 0.945312 L 32.457031 16.121094 L 0.355469 16.121094 Z M 0.355469 0.945312 " clip-rule="nonzero"/></clipPath><clipPath id="d0ebdd7ea3"><path d="M 7.941406 0.945312 L 24.839844 0.945312 C 26.855469 0.945312 28.785156 1.742188 30.207031 3.167969 C 31.628906 4.589844 32.429688 6.519531 32.429688 8.53125 C 32.429688 10.546875 31.628906 12.476562 30.207031 13.898438 C 28.785156 15.320312 26.855469 16.121094 24.839844 16.121094 L 7.941406 16.121094 C 5.929688 16.121094 4 15.320312 2.578125 13.898438 C 1.152344 12.476562 0.355469 10.546875 0.355469 8.53125 C 0.355469 6.519531 1.152344 4.589844 2.578125 3.167969 C 4 1.742188 5.929688 0.945312 7.941406 0.945312 Z M 7.941406 0.945312 " clip-rule="nonzero"/></clipPath><clipPath id="0fe6eef225"><rect x="0" width="33" y="0" height="17"/></clipPath><clipPath id="f28a1b3119"><path d="M 49.753906 129.753906 L 192.992188 129.753906 L 192.992188 158.136719 L 49.753906 158.136719 Z M 49.753906 129.753906 " clip-rule="nonzero"/></clipPath><clipPath id="7a4bed5352"><path d="M 58.726562 129.753906 L 183.921875 129.753906 C 188.875 129.753906 192.894531 133.773438 192.894531 138.726562 L 192.894531 149.164062 C 192.894531 154.117188 188.875 158.136719 183.921875 158.136719 L 58.726562 158.136719 C 53.773438 158.136719 49.753906 154.117188 49.753906 149.164062 L 49.753906 138.726562 C 49.753906 133.773438 53.773438 129.753906 58.726562 129.753906 Z M 58.726562 129.753906 " clip-rule="nonzero"/></clipPath><clipPath id="009786d394"><path d="M 0.753906 0.753906 L 143.992188 0.753906 L 143.992188 29.136719 L 0.753906 29.136719 Z M 0.753906 0.753906 " clip-rule="nonzero"/></clipPath><clipPath id="335f32dbae"><path d="M 9.726562 0.753906 L 134.921875 0.753906 C 139.875 0.753906 143.894531 4.773438 143.894531 9.726562 L 143.894531 20.164062 C 143.894531 25.117188 139.875 29.136719 134.921875 29.136719 L 9.726562 29.136719 C 4.773438 29.136719 0.753906 25.117188 0.753906 20.164062 L 0.753906 9.726562 C 0.753906 4.773438 4.773438 0.753906 9.726562 0.753906 Z M 9.726562 0.753906 " clip-rule="nonzero"/></clipPath><clipPath id="eea9d181c4"><rect x="0" width="144" y="0" height="30"/></clipPath><clipPath id="6ad7f0c751"><path d="M 40.484375 142.519531 L 110.457031 142.519531 L 110.457031 159.121094 L 40.484375 159.121094 Z M 40.484375 142.519531 " clip-rule="nonzero"/></clipPath><clipPath id="be71201ce9"><path d="M 48.785156 142.519531 L 102.089844 142.519531 C 104.292969 142.519531 106.402344 143.394531 107.960938 144.953125 C 109.515625 146.507812 110.390625 148.621094 110.390625 150.820312 C 110.390625 153.023438 109.515625 155.132812 107.960938 156.691406 C 106.402344 158.246094 104.292969 159.121094 102.089844 159.121094 L 48.785156 159.121094 C 46.582031 159.121094 44.46875 158.246094 42.914062 156.691406 C 41.355469 155.132812 40.484375 153.023438 40.484375 150.820312 C 40.484375 148.621094 41.355469 146.507812 42.914062 144.953125 C 44.46875 143.394531 46.582031 142.519531 48.785156 142.519531 Z M 48.785156 142.519531 " clip-rule="nonzero"/></clipPath><clipPath id="ed314b76c0"><path d="M 0.484375 0.519531 L 70.457031 0.519531 L 70.457031 17.121094 L 0.484375 17.121094 Z M 0.484375 0.519531 " clip-rule="nonzero"/></clipPath><clipPath id="8ae1f6c4cb"><path d="M 8.785156 0.519531 L 62.089844 0.519531 C 64.292969 0.519531 66.402344 1.394531 67.960938 2.953125 C 69.515625 4.507812 70.390625 6.621094 70.390625 8.820312 C 70.390625 11.023438 69.515625 13.132812 67.960938 14.691406 C 66.402344 16.246094 64.292969 17.121094 62.089844 17.121094 L 8.785156 17.121094 C 6.582031 17.121094 4.46875 16.246094 2.914062 14.691406 C 1.355469 13.132812 0.484375 11.023438 0.484375 8.820312 C 0.484375 6.621094 1.355469 4.507812 2.914062 2.953125 C 4.46875 1.394531 6.582031 0.519531 8.785156 0.519531 Z M 8.785156 0.519531 " clip-rule="nonzero"/></clipPath><clipPath id="093c66008b"><rect x="0" width="71" y="0" height="18"/></clipPath><clipPath id="ca6d3b6698"><path d="M 57.800781 48.480469 L 184.542969 48.480469 L 184.542969 122.363281 L 57.800781 122.363281 Z M 57.800781 48.480469 " clip-rule="nonzero"/></clipPath><clipPath id="4dfbbc4a18"><path d="M 0.800781 0.480469 L 127.542969 0.480469 L 127.542969 74.363281 L 0.800781 74.363281 Z M 0.800781 0.480469 " clip-rule="nonzero"/></clipPath><clipPath id="7fb934c97f"><rect x="0" width="128" y="0" height="75"/></clipPath><clipPath id="49819759d4"><path d="M 52 43.761719 L 189 43.761719 L 189 127 L 52 127 Z M 52 43.761719 " clip-rule="nonzero"/></clipPath><clipPath id="a41c1541f9"><path d="M 37 129 L 204.96875 129 L 204.96875 159.699219 L 37 159.699219 Z M 37 129 " clip-rule="nonzero"/></clipPath><clipPath id="3173df5baf"><rect x="0" width="242" y="0" height="213"/></clipPath></defs><g clip-path="url(#34661d1f01)"><g transform="matrix(1, 0, 0, 1, 0, -0.000000000000035721)"><g clip-path="url(#3173df5baf)"><g clip-path="url(#b8d5c71944)"><g clip-path="url(#b5205f6853)"><g transform="matrix(1, 0, 0, 1, 169, 143)"><g clip-path="url(#0fe6eef225)"><g clip-path="url(#0aa987f291)"><g clip-path="url(#d0ebdd7ea3)"><path fill="#ffffff" d="M 0.355469 0.945312 L 32.429688 0.945312 L 32.429688 16.121094 L 0.355469 16.121094 Z M 0.355469 0.945312 " fill-opacity="1" fill-rule="nonzero"/></g></g></g></g></g></g><g clip-path="url(#f28a1b3119)"><g clip-path="url(#7a4bed5352)"><g transform="matrix(1, 0, 0, 1, 49, 129)"><g clip-path="url(#eea9d181c4)"><g clip-path="url(#009786d394)"><g clip-path="url(#335f32dbae)"><path fill="#ffffff" d="M 0.753906 0.753906 L 143.882812 0.753906 L 143.882812 29.136719 L 0.753906 29.136719 Z M 0.753906 0.753906 " fill-opacity="1" fill-rule="nonzero"/></g></g></g></g></g></g><g clip-path="url(#6ad7f0c751)"><g clip-path="url(#be71201ce9)"><g transform="matrix(1, 0, 0, 1, 40, 142)"><g clip-path="url(#093c66008b)"><g clip-path="url(#ed314b76c0)"><g clip-path="url(#8ae1f6c4cb)"><path fill="#ffffff" d="M 0.484375 0.519531 L 70.390625 0.519531 L 70.390625 17.121094 L 0.484375 17.121094 Z M 0.484375 0.519531 " fill-opacity="1" fill-rule="nonzero"/></g></g></g></g></g></g><g clip-path="url(#ca6d3b6698)"><g transform="matrix(1, 0, 0, 1, 57, 48)"><g clip-path="url(#7fb934c97f)"><g clip-path="url(#4dfbbc4a18)"><path fill="#ffffff" d="M 0.800781 0.480469 L 127.503906 0.480469 L 127.503906 74.363281 L 0.800781 74.363281 Z M 0.800781 0.480469 " fill-opacity="1" fill-rule="nonzero"/></g></g></g></g><g clip-path="url(#49819759d4)"><path fill="#1a365d" d="M 54.996094 124.703125 C 56.886719 126.363281 59.398438 126.644531 60.886719 126.644531 C 61.34375 126.644531 61.707031 126.617188 61.921875 126.597656 L 177.433594 126.597656 C 184.164062 126.597656 186.625 122.039062 186.988281 119.628906 L 187.015625 119.46875 L 187.015625 119.304688 C 187.015625 118.695312 188.011719 58.246094 188.089844 52.183594 C 188.128906 48.976562 186.871094 47.082031 185.78125 46.0625 C 183.519531 43.90625 180.496094 43.898438 179.832031 43.929688 C 176.820312 43.929688 69.890625 43.960938 63.105469 43.929688 L 63.046875 43.929688 C 60.128906 43.929688 57.753906 44.824219 55.980469 46.585938 C 53.167969 49.386719 53.089844 53.242188 53.089844 53.65625 L 52.722656 119.265625 C 52.722656 122.113281 53.957031 123.796875 54.996094 124.703125 Z M 58.042969 53.691406 C 58.089844 52.75 58.335938 51.867188 58.773438 51.035156 C 59.59375 49.546875 60.960938 48.851562 63.074219 48.851562 L 63.113281 48.851562 C 69.960938 48.878906 178.808594 48.851562 179.90625 48.851562 L 180.0625 48.851562 C 180.0625 48.851562 181.554688 48.828125 182.40625 49.636719 C 182.9375 50.140625 183.199219 50.980469 183.183594 52.128906 C 183.105469 57.988281 182.179688 114.804688 182.113281 118.992188 C 181.933594 119.667969 181.097656 121.683594 177.445312 121.683594 L 61.484375 121.683594 C 60.917969 121.75 59.113281 121.765625 58.238281 120.988281 C 57.984375 120.761719 57.648438 120.339844 57.648438 119.269531 Z M 58.042969 53.691406 " fill-opacity="1" fill-rule="nonzero"/></g><g clip-path="url(#a41c1541f9)"><path fill="#1a365d" d="M 204.914062 154.140625 L 204.863281 153.460938 L 188.992188 130.816406 C 188.796875 130.570312 188.5625 130.367188 188.292969 130.207031 C 188.019531 130.046875 187.726562 129.945312 187.414062 129.898438 C 187.101562 129.851562 186.792969 129.867188 186.484375 129.9375 C 186.179688 130.011719 185.894531 130.136719 185.636719 130.320312 C 185.378906 130.5 185.164062 130.722656 184.992188 130.988281 C 184.820312 131.25 184.703125 131.539062 184.640625 131.847656 C 184.578125 132.15625 184.574219 132.464844 184.628906 132.777344 C 184.6875 133.085938 184.796875 133.375 184.964844 133.644531 L 199.726562 154.699219 C 199.132812 154.910156 198.523438 155.011719 197.898438 155.003906 L 197.832031 155.003906 C 196.304688 155.003906 47.09375 154.324219 42.792969 154.324219 C 42.519531 154.335938 42.253906 154.300781 41.992188 154.230469 C 41.988281 154.148438 41.988281 154.066406 41.992188 153.984375 L 55.316406 134.574219 C 55.5 134.308594 55.625 134.011719 55.695312 133.691406 C 55.761719 133.375 55.765625 133.054688 55.707031 132.734375 C 55.648438 132.410156 55.527344 132.113281 55.351562 131.839844 C 55.171875 131.566406 54.949219 131.335938 54.679688 131.152344 C 54.410156 130.96875 54.117188 130.839844 53.796875 130.773438 C 53.476562 130.707031 53.15625 130.703125 52.835938 130.761719 C 52.515625 130.820312 52.21875 130.941406 51.945312 131.117188 C 51.671875 131.296875 51.441406 131.519531 51.257812 131.789062 L 37.476562 151.875 L 37.367188 152.203125 C 37.273438 152.492188 36.484375 155.054688 37.976562 157.136719 C 38.667969 158.09375 40.0625 159.238281 42.777344 159.238281 C 47.046875 159.238281 194.945312 159.90625 197.765625 159.917969 L 197.964844 159.917969 C 198.953125 159.917969 201.8125 159.75 203.574219 157.917969 C 204.0625 157.414062 204.421875 156.835938 204.65625 156.175781 C 204.890625 155.515625 204.976562 154.835938 204.914062 154.140625 Z M 204.914062 154.140625 " fill-opacity="1" fill-rule="nonzero"/></g><path fill="#1a365d" d="M 129.628906 142.730469 L 114.085938 142.730469 C 112.40625 142.824219 111.230469 143.40625 110.578125 144.457031 C 109.664062 145.933594 110.328125 147.601562 110.410156 147.785156 L 110.570312 148.160156 L 115.21875 151.511719 L 127.980469 151.382812 L 132.765625 147.953125 L 132.859375 147.34375 C 132.917969 146.972656 133.140625 145.0625 132.03125 143.773438 C 131.726562 143.429688 131.367188 143.164062 130.945312 142.980469 C 130.527344 142.800781 130.085938 142.714844 129.628906 142.730469 Z M 127.011719 148.445312 L 116.152344 148.554688 L 113.039062 146.316406 C 113.023438 146.210938 113.03125 146.109375 113.074219 146.011719 C 113.128906 145.917969 113.441406 145.734375 114.195312 145.6875 L 129.617188 145.6875 C 129.667969 145.6875 129.71875 145.691406 129.769531 145.703125 C 129.882812 145.902344 129.9375 146.117188 129.9375 146.347656 Z M 127.011719 148.445312 " fill-opacity="1" fill-rule="nonzero"/><path stroke-linecap="butt" transform="matrix(-0.198361, 0.810171, -0.810171, -0.198361, 114.296498, 70.465584)" fill="none" stroke-linejoin="miter" d="M 15.001866 2.001419 L 38.587872 1.998006 " stroke="#0077b6" stroke-width="4" stroke-opacity="1" stroke-miterlimit="4"/><path stroke-linecap="round" transform="matrix(-0.198361, 0.810171, -0.810171, -0.198361, 114.296498, 70.465584)" fill="none" stroke-linejoin="round" d="M 1.997498 1.99837 C 2.001119 -1.314896 4.684577 -4.001767 8.002392 -3.99926 C 11.314544 -4.000189 14.002529 -1.312181 13.998909 2.001085 C 13.999837 5.313237 11.31183 8.001222 7.999678 8.00215 C 4.686412 7.99853 1.999541 5.315071 1.997498 1.99837 " stroke="#0077b6" stroke-width="4" stroke-opacity="1" stroke-miterlimit="4"/><path stroke-linecap="round" transform="matrix(-0.198361, 0.810171, -0.810171, -0.198361, 114.296498, 70.465584)" fill="none" stroke-linejoin="round" d="M 51.586577 1.99762 C 51.588619 5.314321 48.899498 7.997757 45.587345 7.998685 C 42.270644 8.000728 39.587208 5.311606 39.58628 1.999454 C 39.585351 -1.312698 42.273359 -4.000683 45.585511 -4.001612 C 48.898777 -3.997991 51.585648 -1.314533 51.586577 1.99762 " stroke="#0077b6" stroke-width="4" stroke-opacity="1" stroke-miterlimit="4"/><path stroke-linecap="butt" transform="matrix(-0.0928099, 0.828921, -0.828921, -0.0928099, 141.242516, 53.460063)" fill="none" stroke-linejoin="miter" d="M 14.998683 2.001496 L 30.738286 2.001672 " stroke="#0077b6" stroke-width="4" stroke-opacity="1" stroke-miterlimit="4"/><path stroke-linecap="round" transform="matrix(-0.0928099, 0.828921, -0.828921, -0.0928099, 141.242516, 53.460063)" fill="none" stroke-linejoin="round" d="M 2.001641 2.000559 C 1.998331 -1.311923 4.684838 -4.001929 7.997841 -4.000585 C 11.315498 -3.999762 14.00085 -1.312733 13.999506 2.000269 C 13.998162 5.313272 11.315788 7.998103 7.998652 8.001935 C 4.685649 8.00059 2.000297 5.313562 2.001641 2.000559 " stroke="#0077b6" stroke-width="4" stroke-opacity="1" stroke-miterlimit="4"/><path stroke-linecap="round" transform="matrix(-0.0928099, 0.828921, -0.828921, -0.0928099, 141.242516, 53.460063)" fill="none" stroke-linejoin="round" d="M 43.739982 2.002087 C 43.738638 5.31509 41.051609 8.000442 37.738607 7.999098 C 34.425604 7.997754 31.740773 5.31538 31.736942 1.998244 C 31.738286 -1.314759 34.425314 -4.000111 37.738317 -3.998767 C 41.050799 -4.002077 43.740805 -1.31557 43.739982 2.002087 " stroke="#0077b6" stroke-width="4" stroke-opacity="1" stroke-miterlimit="4"/><path stroke-linecap="butt" transform="matrix(0.786149, 0.278737, -0.278737, 0.786149, 115.989982, 76.297806)" fill="none" stroke-linejoin="miter" d="M 0.00162338 2.000684 L 22.117716 2.000042 " stroke="#0077b6" stroke-width="4" stroke-opacity="1" stroke-miterlimit="4"/></g></g></g><path stroke-linecap="round" transform="matrix(0.747685, -0.000000000000000093, 0.000000000000000093, 0.747685, 51.868417, 129.419127)" fill="none" stroke-linejoin="miter" d="M 3.498743 3.498837 L 180.555639 3.498837 " stroke="#1a365d" stroke-width="7" stroke-opacity="1" stroke-miterlimit="4"/></svg>